<svg width="1200" height="550" viewBox="0 0 1200 550" fill="none" xmlns="http://www.w3.org/2000/svg">
<rect width="1200" height="550" rx="12" fill="#5438DC"/>
<path d="M555 242.667C555 226.577 561.391 211.146 572.769 199.769C584.146 188.391 599.577 182 615.667 182H646V212.333H615.667L615.676 213.08C615.768 216.809 616.547 220.491 617.976 223.941C619.5 227.622 621.734 230.966 624.551 233.782C627.367 236.599 630.712 238.833 634.392 240.357C638.072 241.882 642.017 242.667 646 242.667V273C638.033 273 630.145 271.431 622.784 268.382C615.424 265.333 608.736 260.865 603.103 255.231C597.469 249.598 593 242.91 589.951 235.55C589.223 233.791 588.579 232.002 588.021 230.188C586.267 234.074 585.333 238.322 585.333 242.667V273H555V242.667Z" fill="white"/>
<path d="M238.055 369V323.5H254.63C260.09 323.5 264.532 324.497 267.955 326.49C271.422 328.44 273.957 331.127 275.56 334.55C277.163 337.93 277.965 341.808 277.965 346.185C277.965 351.168 277.012 355.372 275.105 358.795C273.242 362.175 270.555 364.732 267.045 366.465C263.578 368.155 259.44 369 254.63 369H238.055ZM248.325 360.095H254.11C257.663 360.095 260.393 359.51 262.3 358.34C264.25 357.17 265.593 355.545 266.33 353.465C267.11 351.385 267.5 348.958 267.5 346.185C267.5 341.288 266.373 337.757 264.12 335.59C261.91 333.38 258.573 332.275 254.11 332.275H248.325V360.095ZM297.366 369.78C294.376 369.78 291.624 369.152 289.111 367.895C286.598 366.595 284.583 364.688 283.066 362.175C281.549 359.662 280.791 356.563 280.791 352.88C280.791 349.197 281.528 346.098 283.001 343.585C284.474 341.072 286.468 339.187 288.981 337.93C291.494 336.63 294.289 335.98 297.366 335.98C300.573 335.98 303.389 336.652 305.816 337.995C308.286 339.295 310.214 341.18 311.601 343.65C313.031 346.077 313.746 348.98 313.746 352.36C313.746 352.793 313.724 353.27 313.681 353.79C313.681 354.267 313.638 354.765 313.551 355.285H290.801C290.931 356.845 291.299 358.08 291.906 358.99C292.556 359.9 293.336 360.572 294.246 361.005C295.199 361.395 296.131 361.59 297.041 361.59C298.298 361.59 299.359 361.33 300.226 360.81C301.093 360.29 301.764 359.488 302.241 358.405H312.966C312.489 360.442 311.536 362.327 310.106 364.06C308.676 365.793 306.878 367.18 304.711 368.22C302.588 369.26 300.139 369.78 297.366 369.78ZM290.801 349.695H303.411C303.411 347.918 302.826 346.532 301.656 345.535C300.486 344.538 299.013 344.04 297.236 344.04C295.503 344.04 294.073 344.56 292.946 345.6C291.819 346.597 291.104 347.962 290.801 349.695ZM330.848 369.78C328.508 369.78 326.19 369.368 323.893 368.545C321.64 367.678 319.755 366.422 318.238 364.775C316.721 363.085 315.876 361.005 315.703 358.535H325.648C325.821 359.748 326.385 360.702 327.338 361.395C328.335 362.045 329.461 362.37 330.718 362.37C331.758 362.37 332.668 362.175 333.448 361.785C334.271 361.352 334.683 360.658 334.683 359.705C334.683 358.925 334.315 358.318 333.578 357.885C332.841 357.408 331.975 357.04 330.978 356.78C330.025 356.52 329.18 356.303 328.443 356.13C326.406 355.61 324.5 355.025 322.723 354.375C320.946 353.725 319.495 352.772 318.368 351.515C317.285 350.258 316.743 348.482 316.743 346.185C316.743 343.975 317.35 342.112 318.563 340.595C319.776 339.078 321.401 337.93 323.438 337.15C325.475 336.37 327.706 335.98 330.133 335.98C333.946 335.98 337.088 336.933 339.558 338.84C342.071 340.703 343.545 343.477 343.978 347.16H334.683C334.466 345.86 333.925 344.928 333.058 344.365C332.191 343.758 331.108 343.455 329.808 343.455C328.855 343.455 328.01 343.65 327.273 344.04C326.536 344.387 326.168 345.037 326.168 345.99C326.168 346.77 326.515 347.398 327.208 347.875C327.945 348.308 328.79 348.633 329.743 348.85C330.696 349.067 331.563 349.283 332.343 349.5C334.423 350.02 336.33 350.627 338.063 351.32C339.84 352.013 341.291 353.01 342.418 354.31C343.545 355.567 344.13 357.387 344.173 359.77C344.173 361.893 343.545 363.713 342.288 365.23C341.075 366.703 339.45 367.83 337.413 368.61C335.42 369.39 333.231 369.78 330.848 369.78ZM348.25 369V323.5H377.565V332.34H358.52V341.05H375.55V349.89H358.52V369H348.25ZM395.004 369.78C391.884 369.78 389.024 369.13 386.424 367.83C383.867 366.487 381.809 364.558 380.249 362.045C378.732 359.532 377.974 356.477 377.974 352.88C377.974 349.457 378.71 346.488 380.184 343.975C381.7 341.462 383.759 339.512 386.359 338.125C388.959 336.695 391.884 335.98 395.134 335.98C398.6 335.98 401.612 336.717 404.169 338.19C406.725 339.62 408.719 341.613 410.149 344.17C411.579 346.683 412.294 349.587 412.294 352.88C412.294 356.303 411.535 359.293 410.019 361.85C408.502 364.363 406.444 366.313 403.844 367.7C401.244 369.087 398.297 369.78 395.004 369.78ZM395.069 361.07C396.499 361.07 397.734 360.723 398.774 360.03C399.814 359.337 400.615 358.362 401.179 357.105C401.785 355.848 402.089 354.418 402.089 352.815C402.089 351.038 401.764 349.565 401.114 348.395C400.507 347.182 399.662 346.272 398.579 345.665C397.539 345.058 396.369 344.755 395.069 344.755C393.725 344.755 392.512 345.08 391.429 345.73C390.389 346.38 389.565 347.312 388.959 348.525C388.352 349.738 388.049 351.19 388.049 352.88C388.049 354.483 388.33 355.913 388.894 357.17C389.5 358.383 390.324 359.337 391.364 360.03C392.404 360.723 393.639 361.07 395.069 361.07ZM415.191 369V336.76H425.201V341.765C426.327 340.118 427.757 338.753 429.491 337.67C431.224 336.543 433.217 335.98 435.471 335.98V346.575H432.676C430.162 346.575 428.277 347.138 427.021 348.265C425.807 349.392 425.201 351.255 425.201 353.855V369H415.191ZM451.395 384.08C448.448 384.08 445.805 383.755 443.465 383.105C441.125 382.455 439.261 381.393 437.875 379.92C436.531 378.49 435.86 376.605 435.86 374.265C435.86 372.748 436.185 371.427 436.835 370.3C437.485 369.217 438.481 368.263 439.825 367.44C438.698 366.79 437.853 365.967 437.29 364.97C436.726 363.973 436.445 362.825 436.445 361.525C436.445 358.665 437.745 356.498 440.345 355.025C439.391 354.028 438.676 352.923 438.2 351.71C437.723 350.453 437.485 349.11 437.485 347.68C437.485 345.297 438.048 343.238 439.175 341.505C440.345 339.728 441.948 338.363 443.985 337.41C446.021 336.457 448.34 335.98 450.94 335.98C452.89 335.98 454.645 336.24 456.205 336.76H467.775V343.455H463.68C463.896 344.062 464.07 344.733 464.2 345.47C464.373 346.163 464.46 346.9 464.46 347.68C464.46 350.02 463.853 352.078 462.64 353.855C461.47 355.588 459.866 356.953 457.83 357.95C455.793 358.903 453.496 359.38 450.94 359.38C449.986 359.38 449.076 359.315 448.21 359.185C447.386 359.012 446.585 358.773 445.805 358.47C445.068 358.817 444.7 359.38 444.7 360.16C444.7 361.547 445.826 362.24 448.08 362.24H454.71C457.31 362.24 459.563 362.608 461.47 363.345C463.376 364.082 464.85 365.208 465.89 366.725C466.93 368.242 467.45 370.213 467.45 372.64C467.45 375.24 466.691 377.385 465.175 379.075C463.701 380.765 461.73 382.022 459.26 382.845C456.833 383.668 454.211 384.08 451.395 384.08ZM451.655 376.735C453.431 376.735 454.97 376.453 456.27 375.89C457.57 375.327 458.22 374.438 458.22 373.225C458.22 371.015 456.703 369.91 453.67 369.91H449.64C448.166 369.91 447.04 370.17 446.26 370.69C445.48 371.253 445.09 372.098 445.09 373.225C445.09 374.092 445.393 374.785 446 375.305C446.606 375.825 447.408 376.193 448.405 376.41C449.401 376.627 450.485 376.735 451.655 376.735ZM450.94 352.1C452.37 352.1 453.54 351.688 454.45 350.865C455.36 350.042 455.815 348.98 455.815 347.68C455.815 346.423 455.36 345.383 454.45 344.56C453.54 343.693 452.37 343.26 450.94 343.26C449.466 343.26 448.296 343.693 447.43 344.56C446.563 345.383 446.13 346.423 446.13 347.68C446.13 348.98 446.563 350.042 447.43 350.865C448.296 351.688 449.466 352.1 450.94 352.1ZM484.749 369.78C481.759 369.78 479.007 369.152 476.494 367.895C473.98 366.595 471.965 364.688 470.449 362.175C468.932 359.662 468.174 356.563 468.174 352.88C468.174 349.197 468.91 346.098 470.384 343.585C471.857 341.072 473.85 339.187 476.364 337.93C478.877 336.63 481.672 335.98 484.749 335.98C487.955 335.98 490.772 336.652 493.199 337.995C495.669 339.295 497.597 341.18 498.984 343.65C500.414 346.077 501.129 348.98 501.129 352.36C501.129 352.793 501.107 353.27 501.064 353.79C501.064 354.267 501.02 354.765 500.934 355.285H478.184C478.314 356.845 478.682 358.08 479.289 358.99C479.939 359.9 480.719 360.572 481.629 361.005C482.582 361.395 483.514 361.59 484.424 361.59C485.68 361.59 486.742 361.33 487.609 360.81C488.475 360.29 489.147 359.488 489.624 358.405H500.349C499.872 360.442 498.919 362.327 497.489 364.06C496.059 365.793 494.26 367.18 492.094 368.22C489.97 369.26 487.522 369.78 484.749 369.78ZM478.184 349.695H490.794C490.794 347.918 490.209 346.532 489.039 345.535C487.869 344.538 486.395 344.04 484.619 344.04C482.885 344.04 481.455 344.56 480.329 345.6C479.202 346.597 478.487 347.962 478.184 349.695ZM541.173 369.78C538.053 369.78 535.063 369.238 532.203 368.155C529.387 367.072 526.852 365.512 524.598 363.475C522.388 361.438 520.633 358.968 519.333 356.065C518.077 353.162 517.448 349.89 517.448 346.25C517.448 342.61 518.077 339.338 519.333 336.435C520.633 333.532 522.388 331.062 524.598 329.025C526.852 326.988 529.387 325.428 532.203 324.345C535.063 323.262 538.053 322.72 541.173 322.72C544.293 322.72 547.283 323.262 550.143 324.345C553.003 325.428 555.538 326.988 557.748 329.025C560.002 331.062 561.778 333.532 563.078 336.435C564.378 339.338 565.028 342.61 565.028 346.25C565.028 349.89 564.378 353.162 563.078 356.065C561.778 358.968 560.002 361.438 557.748 363.475C555.538 365.512 553.003 367.072 550.143 368.155C547.283 369.238 544.293 369.78 541.173 369.78ZM541.173 360.485C543.297 360.485 545.377 359.965 547.413 358.925C549.45 357.885 551.118 356.325 552.418 354.245C553.762 352.122 554.433 349.457 554.433 346.25C554.433 343 553.762 340.335 552.418 338.255C551.075 336.132 549.385 334.572 547.348 333.575C545.312 332.535 543.253 332.015 541.173 332.015C539.093 332.015 537.035 332.535 534.998 333.575C533.005 334.572 531.337 336.132 529.993 338.255C528.693 340.335 528.043 343 528.043 346.25C528.043 349.457 528.693 352.122 529.993 354.245C531.293 356.325 532.94 357.885 534.933 358.925C536.97 359.965 539.05 360.485 541.173 360.485ZM570.887 369V345.015H567.247V336.76H570.887V335.525C570.887 331.105 571.992 328.007 574.202 326.23C576.455 324.41 579.402 323.5 583.042 323.5H586.357V332.21H584.537C583.28 332.21 582.37 332.47 581.807 332.99C581.244 333.467 580.962 334.268 580.962 335.395V336.76H586.357V345.015H580.962V369H570.887ZM592.279 369V345.145H588.639V336.76H592.279V335.525C592.279 331.105 593.384 328.007 595.594 326.23C597.847 324.41 600.794 323.5 604.434 323.5H607.749V332.21H605.929C604.672 332.21 603.762 332.47 603.199 332.99C602.635 333.467 602.354 334.268 602.354 335.395V336.76H607.749V345.145H602.354V369H592.279ZM611.324 369V336.76H621.334V369H611.324ZM616.329 333.9C614.639 333.9 613.187 333.293 611.974 332.08C610.76 330.867 610.154 329.415 610.154 327.725C610.154 326.035 610.76 324.583 611.974 323.37C613.187 322.157 614.639 321.55 616.329 321.55C618.105 321.55 619.579 322.157 620.749 323.37C621.919 324.583 622.504 326.035 622.504 327.725C622.504 329.415 621.919 330.867 620.749 332.08C619.579 333.293 618.105 333.9 616.329 333.9ZM640.963 369.78C637.713 369.78 634.853 369.087 632.383 367.7C629.913 366.313 627.963 364.363 626.533 361.85C625.146 359.293 624.453 356.303 624.453 352.88C624.453 349.587 625.125 346.683 626.468 344.17C627.811 341.613 629.718 339.62 632.188 338.19C634.658 336.717 637.583 335.98 640.963 335.98C644.776 335.98 648.113 336.977 650.973 338.97C653.833 340.92 655.761 344.04 656.758 348.33H646.033C645.6 347.073 644.928 346.142 644.018 345.535C643.151 344.885 642.068 344.56 640.768 344.56C639.338 344.56 638.168 344.95 637.258 345.73C636.391 346.51 635.741 347.528 635.308 348.785C634.918 350.042 634.723 351.407 634.723 352.88C634.723 354.31 634.918 355.675 635.308 356.975C635.741 358.232 636.391 359.25 637.258 360.03C638.168 360.81 639.338 361.2 640.768 361.2C642.068 361.2 643.151 360.875 644.018 360.225C644.928 359.575 645.6 358.643 646.033 357.43H656.758C656.151 360.073 655.111 362.305 653.638 364.125C652.165 365.945 650.345 367.353 648.178 368.35C646.055 369.303 643.65 369.78 640.963 369.78ZM665.031 333.9C663.341 333.9 661.889 333.293 660.676 332.08C659.463 330.867 658.856 329.415 658.856 327.725C658.856 326.035 659.463 324.583 660.676 323.37C661.889 322.157 663.341 321.55 665.031 321.55C666.808 321.55 668.281 322.157 669.451 323.37C670.621 324.583 671.206 326.035 671.206 327.725C671.206 329.415 670.621 330.867 669.451 332.08C668.281 333.293 666.808 333.9 665.031 333.9ZM660.026 369V336.76H670.036V369H660.026ZM683.8 369.78C681.936 369.78 680.203 369.412 678.6 368.675C676.996 367.895 675.696 366.79 674.7 365.36C673.746 363.887 673.27 362.11 673.27 360.03C673.27 357.647 673.898 355.718 675.155 354.245C676.411 352.728 678.08 351.623 680.16 350.93C682.283 350.237 684.601 349.89 687.115 349.89H694.395C694.395 348.763 694.2 347.767 693.81 346.9C693.42 346.033 692.835 345.362 692.055 344.885C691.275 344.365 690.3 344.105 689.13 344.105C687.916 344.105 686.811 344.365 685.815 344.885C684.818 345.405 684.19 346.293 683.93 347.55H674.245C674.418 345.167 675.22 343.13 676.65 341.44C678.08 339.707 679.9 338.363 682.11 337.41C684.363 336.457 686.768 335.98 689.325 335.98C692.315 335.98 694.936 336.543 697.19 337.67C699.486 338.753 701.263 340.335 702.52 342.415C703.776 344.452 704.405 346.922 704.405 349.825V358.08C704.405 359.033 704.535 359.77 704.795 360.29C705.098 360.81 705.856 361.07 707.07 361.07V369C704.99 369 703.256 368.87 701.87 368.61C700.483 368.35 699.313 367.873 698.36 367.18C697.406 366.443 696.54 365.382 695.76 363.995C694.33 365.902 692.64 367.353 690.69 368.35C688.74 369.303 686.443 369.78 683.8 369.78ZM687.31 362.11C688.566 362.11 689.715 361.85 690.755 361.33C691.838 360.767 692.705 359.987 693.355 358.99C694.005 357.993 694.33 356.867 694.33 355.61V355.22H688.155C687.288 355.22 686.486 355.35 685.75 355.61C685.013 355.827 684.428 356.195 683.995 356.715C683.561 357.192 683.345 357.863 683.345 358.73C683.345 359.987 683.756 360.875 684.58 361.395C685.403 361.872 686.313 362.11 687.31 362.11ZM709.725 369V323.5H719.735V369H709.725ZM749.34 369L733.87 323.5H744.335L755.58 359.315L759.09 347.16L750.77 323.5H761.04L766.045 339.295L770.92 323.5H781.255L772.87 347.16L776.315 359.315L787.625 323.5H798.09L782.62 369H770.27L766.045 355.285L761.625 369H749.34ZM809.812 369.78C806.822 369.78 804.071 369.152 801.557 367.895C799.044 366.595 797.029 364.688 795.512 362.175C793.996 359.662 793.237 356.563 793.237 352.88C793.237 349.197 793.974 346.098 795.447 343.585C796.921 341.072 798.914 339.187 801.427 337.93C803.941 336.63 806.736 335.98 809.812 335.98C813.019 335.98 815.836 336.652 818.262 337.995C820.732 339.295 822.661 341.18 824.047 343.65C825.477 346.077 826.192 348.98 826.192 352.36C826.192 352.793 826.171 353.27 826.127 353.79C826.127 354.267 826.084 354.765 825.997 355.285H803.247C803.377 356.845 803.746 358.08 804.352 358.99C805.002 359.9 805.782 360.572 806.692 361.005C807.646 361.395 808.577 361.59 809.487 361.59C810.744 361.59 811.806 361.33 812.672 360.81C813.539 360.29 814.211 359.488 814.687 358.405H825.412C824.936 360.442 823.982 362.327 822.552 364.06C821.122 365.793 819.324 367.18 817.157 368.22C815.034 369.26 812.586 369.78 809.812 369.78ZM803.247 349.695H815.857C815.857 347.918 815.272 346.532 814.102 345.535C812.932 344.538 811.459 344.04 809.682 344.04C807.949 344.04 806.519 344.56 805.392 345.6C804.266 346.597 803.551 347.962 803.247 349.695ZM849.209 369.78C847.173 369.78 845.244 369.368 843.424 368.545C841.604 367.722 840.153 366.443 839.069 364.71V369H828.994V323.5H839.069V341.115C840.109 339.425 841.539 338.147 843.359 337.28C845.223 336.413 847.173 335.98 849.209 335.98C852.069 335.98 854.583 336.717 856.749 338.19C858.916 339.62 860.606 341.613 861.819 344.17C863.076 346.683 863.704 349.565 863.704 352.815C863.704 355.935 863.119 358.795 861.949 361.395C860.779 363.952 859.111 365.988 856.944 367.505C854.778 369.022 852.199 369.78 849.209 369.78ZM846.219 361.005C847.649 361.005 848.906 360.658 849.989 359.965C851.073 359.272 851.918 358.318 852.524 357.105C853.131 355.848 853.434 354.418 853.434 352.815C853.434 351.038 853.088 349.565 852.394 348.395C851.744 347.182 850.878 346.272 849.794 345.665C848.711 345.058 847.519 344.755 846.219 344.755C844.876 344.755 843.663 345.08 842.579 345.73C841.496 346.38 840.629 347.312 839.979 348.525C839.329 349.738 839.004 351.19 839.004 352.88C839.004 354.44 839.308 355.848 839.914 357.105C840.521 358.318 841.366 359.272 842.449 359.965C843.576 360.658 844.833 361.005 846.219 361.005ZM880.301 369.78C877.961 369.78 875.643 369.368 873.346 368.545C871.093 367.678 869.208 366.422 867.691 364.775C866.175 363.085 865.33 361.005 865.156 358.535H875.101C875.275 359.748 875.838 360.702 876.791 361.395C877.788 362.045 878.915 362.37 880.171 362.37C881.211 362.37 882.121 362.175 882.901 361.785C883.725 361.352 884.136 360.658 884.136 359.705C884.136 358.925 883.768 358.318 883.031 357.885C882.295 357.408 881.428 357.04 880.431 356.78C879.478 356.52 878.633 356.303 877.896 356.13C875.86 355.61 873.953 355.025 872.176 354.375C870.4 353.725 868.948 352.772 867.821 351.515C866.738 350.258 866.196 348.482 866.196 346.185C866.196 343.975 866.803 342.112 868.016 340.595C869.23 339.078 870.855 337.93 872.891 337.15C874.928 336.37 877.16 335.98 879.586 335.98C883.4 335.98 886.541 336.933 889.011 338.84C891.525 340.703 892.998 343.477 893.431 347.16H884.136C883.92 345.86 883.378 344.928 882.511 344.365C881.645 343.758 880.561 343.455 879.261 343.455C878.308 343.455 877.463 343.65 876.726 344.04C875.99 344.387 875.621 345.037 875.621 345.99C875.621 346.77 875.968 347.398 876.661 347.875C877.398 348.308 878.243 348.633 879.196 348.85C880.15 349.067 881.016 349.283 881.796 349.5C883.876 350.02 885.783 350.627 887.516 351.32C889.293 352.013 890.745 353.01 891.871 354.31C892.998 355.567 893.583 357.387 893.626 359.77C893.626 361.893 892.998 363.713 891.741 365.23C890.528 366.703 888.903 367.83 886.866 368.61C884.873 369.39 882.685 369.78 880.301 369.78ZM901.798 333.9C900.108 333.9 898.657 333.293 897.443 332.08C896.23 330.867 895.623 329.415 895.623 327.725C895.623 326.035 896.23 324.583 897.443 323.37C898.657 322.157 900.108 321.55 901.798 321.55C903.575 321.55 905.048 322.157 906.218 323.37C907.388 324.583 907.973 326.035 907.973 327.725C907.973 329.415 907.388 330.867 906.218 332.08C905.048 333.293 903.575 333.9 901.798 333.9ZM896.793 369V336.76H906.803V369H896.793ZM923.817 369C920.004 369 917.122 368.068 915.172 366.205C913.266 364.342 912.312 361.482 912.312 357.625V345.015H908.932V336.76H912.312V328.765H922.322V336.76H928.887V345.015H922.322V357.755C922.322 358.838 922.539 359.575 922.972 359.965C923.449 360.312 924.229 360.485 925.312 360.485H928.887V369H923.817ZM946.985 369.78C943.995 369.78 941.243 369.152 938.73 367.895C936.217 366.595 934.202 364.688 932.685 362.175C931.168 359.662 930.41 356.563 930.41 352.88C930.41 349.197 931.147 346.098 932.62 343.585C934.093 341.072 936.087 339.187 938.6 337.93C941.113 336.63 943.908 335.98 946.985 335.98C950.192 335.98 953.008 336.652 955.435 337.995C957.905 339.295 959.833 341.18 961.22 343.65C962.65 346.077 963.365 348.98 963.365 352.36C963.365 352.793 963.343 353.27 963.3 353.79C963.3 354.267 963.257 354.765 963.17 355.285H940.42C940.55 356.845 940.918 358.08 941.525 358.99C942.175 359.9 942.955 360.572 943.865 361.005C944.818 361.395 945.75 361.59 946.66 361.59C947.917 361.59 948.978 361.33 949.845 360.81C950.712 360.29 951.383 359.488 951.86 358.405H962.585C962.108 360.442 961.155 362.327 959.725 364.06C958.295 365.793 956.497 367.18 954.33 368.22C952.207 369.26 949.758 369.78 946.985 369.78ZM940.42 349.695H953.03C953.03 347.918 952.445 346.532 951.275 345.535C950.105 344.538 948.632 344.04 946.855 344.04C945.122 344.04 943.692 344.56 942.565 345.6C941.438 346.597 940.723 347.962 940.42 349.695Z" fill="white"/>
</svg>
