<svg width="512" height="512" viewBox="0 0 512 512" fill="none" xmlns="http://www.w3.org/2000/svg">
<rect width="512" height="512" rx="41.3737" fill="#5438DC"/>
<path d="M102.4 307.2C102.4 252.884 123.977 200.792 162.385 162.385C200.792 123.977 252.884 102.4 307.2 102.4H409.6V204.8H307.2L307.208 206.061C307.368 219.079 310.01 231.951 314.995 243.986C320.141 256.41 327.684 267.699 337.192 277.208C346.701 286.717 357.989 294.259 370.413 299.405C382.837 304.551 396.152 307.2 409.6 307.2V409.6C382.705 409.6 356.074 404.303 331.227 394.011C306.379 383.719 283.802 368.633 264.784 349.615C245.767 330.598 230.682 308.02 220.39 283.173C217.93 277.234 215.754 271.193 213.869 265.071C207.949 278.188 204.8 292.532 204.8 307.2V409.6H102.4V307.2Z" fill="white"/>
</svg>
