<svg width="512" height="513" viewBox="0 0 512 513" fill="none" xmlns="http://www.w3.org/2000/svg">
<path d="M0 342.185C8.49894e-05 251.657 35.9623 164.839 99.9746 100.826C163.987 36.8138 250.806 0.851645 341.333 0.851562H512V171.519H341.333L341.347 173.619C341.614 195.316 346.016 216.77 354.324 236.829C362.901 257.535 375.473 276.349 391.32 292.197C407.168 308.045 425.982 320.617 446.688 329.193C467.395 337.77 489.588 342.185 512 342.185V512.852C467.175 512.852 422.789 504.023 381.377 486.869C339.965 469.715 302.336 444.573 270.641 412.877C238.945 381.181 213.803 343.553 196.649 302.141C192.549 292.242 188.925 282.173 185.783 271.969C175.915 293.83 170.667 317.736 170.667 342.185V512.852H0V342.185Z" fill="white"/>
</svg>
