<svg width="512" height="512" viewBox="0 0 512 512" fill="none" xmlns="http://www.w3.org/2000/svg">
<path d="M0 341.333C8.49894e-05 250.806 35.9623 163.987 99.9746 99.9746C163.987 35.9623 250.806 8.2971e-05 341.333 0H512V170.667H341.333L341.347 172.768C341.614 194.465 346.016 215.919 354.324 235.978C362.901 256.684 375.473 275.498 391.32 291.346C407.168 307.194 425.982 319.765 446.688 328.342C467.395 336.919 489.588 341.333 512 341.333V512C467.175 512 422.789 503.171 381.377 486.018C339.965 468.864 302.336 443.721 270.641 412.025C238.945 380.33 213.803 342.701 196.649 301.289C192.549 291.39 188.925 281.321 185.783 271.117C175.915 292.979 170.667 316.885 170.667 341.333V512H0V341.333Z" fill="#5438DC"/>
</svg>
