<svg width="531" height="512" viewBox="0 0 531 512" fill="none" xmlns="http://www.w3.org/2000/svg">
<path fill-rule="evenodd" clip-rule="evenodd" d="M265.719 0C119.318 0 0.966797 117.333 0.966797 262.49C0.966797 378.521 76.7984 476.739 181.997 511.502C195.149 514.115 199.967 505.854 199.967 498.905C199.967 492.819 199.534 471.961 199.534 450.227C125.886 465.875 110.55 418.937 110.55 418.937C98.7139 388.516 81.1772 380.697 81.1772 380.697C57.0723 364.617 82.933 364.617 82.933 364.617C109.672 366.356 123.702 391.561 123.702 391.561C147.368 431.54 185.503 420.244 200.845 413.289C203.035 396.34 210.052 384.606 217.504 378.089C158.765 372.004 96.9635 349.407 96.9635 248.58C96.9635 219.898 107.477 196.431 124.136 178.181C121.507 171.663 112.3 144.714 126.769 108.645C126.769 108.645 149.124 101.69 199.528 135.589C221.108 129.843 243.363 126.92 265.719 126.895C288.073 126.895 310.861 129.941 331.904 135.589C382.314 101.69 404.669 108.645 404.669 108.645C419.138 144.714 409.925 171.663 407.297 178.181C424.395 196.431 434.475 219.898 434.475 248.58C434.475 349.407 372.673 371.566 313.495 378.089C323.141 386.345 331.465 401.988 331.465 426.761C331.465 461.961 331.032 490.211 331.032 498.899C331.032 505.854 335.855 514.115 349.002 511.507C454.201 476.734 530.032 378.521 530.032 262.49C530.466 117.333 411.681 0 265.719 0Z" fill="#020210"/>
</svg>
