<svg width="512" height="512" viewBox="0 0 512 512" fill="none" xmlns="http://www.w3.org/2000/svg">
<path fill-rule="evenodd" clip-rule="evenodd" d="M455.111 0C486.53 0.000115466 512 25.47 512 56.8887V455.111C512 486.53 486.53 512 455.111 512H56.8887C25.47 512 0.000115451 486.53 0 455.111V56.8887C0.000117528 25.47 25.47 0.000117512 56.8887 0H455.111ZM78.46 440.895H154.811V194.376H78.46V440.895ZM351.171 186.845C298.858 186.845 276.842 227.582 276.842 227.582V194.376H203.621V440.895H276.842V311.487C276.842 276.813 292.804 256.18 323.354 256.18C351.436 256.18 364.917 276.007 364.917 311.487V440.895H440.895V284.814C440.895 218.775 403.46 186.845 351.171 186.845ZM116.269 71.1172C91.3278 71.1172 71.1172 91.4854 71.1172 116.606C71.1172 141.728 91.3278 162.097 116.269 162.097C141.209 162.096 161.407 141.727 161.407 116.606C161.407 91.4856 141.209 71.1174 116.269 71.1172Z" fill="#020210"/>
</svg>
